HIERARCHY
ROOT Hips
{
	OFFSET -345.600250 -557.180420 88.924065
	CHANNELS 6 Xposition Yposition Zposition Zrotation Yrotation Xrotation
	JOINT Spine
	{
		OFFSET 0.000000 2.080078 8.814240
		CHANNELS 6 Xposition Yposition Zposition Zrotation Yrotation Xrotation
		JOINT Spine1
		{
			OFFSET 0.000000 0.000000 8.844139
			CHANNELS 6 Xposition Yposition Zposition Zrotation Yrotation Xrotation
			JOINT Spine2
			{
				OFFSET 0.000000 0.000000 11.682266
				CHANNELS 6 Xposition Yposition Zposition Zrotation Yrotation Xrotation
				JOINT Spine3
				{
					OFFSET 0.000000 0.000000 11.746704
					CHANNELS 6 Xposition Yposition Zposition Zrotation Yrotation Xrotation
					JOINT Neck
					{
						OFFSET 0.000000 0.000000 17.658264
						CHANNELS 6 Xposition Yposition Zposition Zrotation Yrotation Xrotation
						JOINT Neck1
						{
							OFFSET 0.000000 0.000000 5.101517
							CHANNELS 6 Xposition Yposition Zposition Zrotation Yrotation Xrotation
							JOINT Head
							{
								OFFSET 0.000000 0.000000 5.101517
								CHANNELS 6 Xposition Yposition Zposition Zrotation Yrotation Xrotation
								JOINT HeadEnd
								{
									OFFSET 0.000000 0.000000 11.655090
									CHANNELS 6 Xposition Yposition Zposition Zrotation Yrotation Xrotation
									End Site
									{
										OFFSET 0.000000 0.000000 0.100006
									}
								}
							}
						}
					}
					JOINT RightShoulder
					{
						OFFSET -2.625397 0.000000 11.175217
						CHANNELS 6 Xposition Yposition Zposition Zrotation Yrotation Xrotation
						JOINT RightArm
						{
							OFFSET 0.000000 0.000000 10.434723
							CHANNELS 6 Xposition Yposition Zposition Zrotation Yrotation Xrotation
							JOINT RightForeArm
							{
								OFFSET 0.000000 0.000000 29.628418
								CHANNELS 6 Xposition Yposition Zposition Zrotation Yrotation Xrotation
								JOINT RightHand
								{
									OFFSET 0.000000 0.000000 22.857605
									CHANNELS 6 Xposition Yposition Zposition Zrotation Yrotation Xrotation
									JOINT RightHandThumb1
									{
										OFFSET -2.867310 -2.944275 3.959564
										CHANNELS 6 Xposition Yposition Zposition Zrotation Yrotation Xrotation
										JOINT RightHandThumb2
										{
											OFFSET 0.000000 0.000000 3.350403
											CHANNELS 6 Xposition Yposition Zposition Zrotation Yrotation Xrotation
											JOINT RightHandThumb3
											{
												OFFSET 0.000000 0.000000 3.756516
												CHANNELS 6 Xposition Yposition Zposition Zrotation Yrotation Xrotation
												JOINT RightHandThumb4
												{
													OFFSET 0.000000 0.000000 3.147339
													CHANNELS 6 Xposition Yposition Zposition Zrotation Yrotation Xrotation
													End Site
													{
														OFFSET 0.000000 0.000000 0.100006
													}
												}
											}
										}
									}
									JOINT RightHandIndex1
									{
										OFFSET -0.086761 -2.345276 10.030899
										CHANNELS 6 Xposition Yposition Zposition Zrotation Yrotation Xrotation
										JOINT RightHandIndex2
										{
											OFFSET 0.000000 0.000000 4.061096
											CHANNELS 6 Xposition Yposition Zposition Zrotation Yrotation Xrotation
											JOINT RightHandIndex3
											{
												OFFSET 0.000000 0.000000 3.248871
												CHANNELS 6 Xposition Yposition Zposition Zrotation Yrotation Xrotation
												JOINT RightHandIndex4
												{
													OFFSET 0.000000 0.000000 2.639709
													CHANNELS 6 Xposition Yposition Zposition Zrotation Yrotation Xrotation
													End Site
													{
														OFFSET 0.000000 0.000000 0.100006
													}
												}
											}
										}
									}
									JOINT RightHandMiddle1
									{
										OFFSET 0.104095 -0.006775 9.502945
										CHANNELS 6 Xposition Yposition Zposition Zrotation Yrotation Xrotation
										JOINT RightHandMiddle2
										{
											OFFSET 0.000000 0.000000 4.568726
											CHANNELS 6 Xposition Yposition Zposition Zrotation Yrotation Xrotation
											JOINT RightHandMiddle3
											{
												OFFSET 0.000000 0.000000 3.654984
												CHANNELS 6 Xposition Yposition Zposition Zrotation Yrotation Xrotation
												JOINT RightHandMiddle4
												{
													OFFSET 0.000000 0.000000 2.741241
													CHANNELS 6 Xposition Yposition Zposition Zrotation Yrotation Xrotation
													End Site
													{
														OFFSET 0.000000 0.000000 0.100006
													}
												}
											}
										}
									}
									JOINT RightHandRing1
									{
										OFFSET 0.086761 2.267456 8.921707
										CHANNELS 6 Xposition Yposition Zposition Zrotation Yrotation Xrotation
										JOINT RightHandRing2
										{
											OFFSET 0.000000 0.000000 4.061096
											CHANNELS 6 Xposition Yposition Zposition Zrotation Yrotation Xrotation
											JOINT RightHandRing3
											{
												OFFSET 0.000000 0.000000 3.654984
												CHANNELS 6 Xposition Yposition Zposition Zrotation Yrotation Xrotation
												JOINT RightHandRing4
												{
													OFFSET 0.000000 0.000000 2.741241
													CHANNELS 6 Xposition Yposition Zposition Zrotation Yrotation Xrotation
													End Site
													{
														OFFSET 0.000000 0.000000 0.100006
													}
												}
											}
										}
									}
									JOINT RightHandPinky1
									{
										OFFSET -0.173492 4.467224 7.976990
										CHANNELS 6 Xposition Yposition Zposition Zrotation Yrotation Xrotation
										JOINT RightHandPinky2
										{
											OFFSET 0.000000 0.000000 3.350403
											CHANNELS 6 Xposition Yposition Zposition Zrotation Yrotation Xrotation
											JOINT RightHandPinky3
											{
												OFFSET 0.000000 0.000000 2.842758
												CHANNELS 6 Xposition Yposition Zposition Zrotation Yrotation Xrotation
												JOINT RightHandPinky4
												{
													OFFSET 0.000000 0.000000 2.639709
													CHANNELS 6 Xposition Yposition Zposition Zrotation Yrotation Xrotation
													End Site
													{
														OFFSET 0.000000 0.000000 0.100006
													}
												}
											}
										}
									}
									JOINT RightForeArmEnd
									{
										OFFSET 0.000000 0.000000 0.000000
										CHANNELS 6 Xposition Yposition Zposition Zrotation Yrotation Xrotation
										End Site
										{
											OFFSET 0.000000 0.000000 0.100006
										}
									}
								}
								JOINT RightArmEnd
								{
									OFFSET 0.000000 0.000000 0.000000
									CHANNELS 6 Xposition Yposition Zposition Zrotation Yrotation Xrotation
									End Site
									{
										OFFSET 0.000000 0.000000 0.100006
									}
								}
							}
						}
					}
					JOINT LeftShoulder
					{
						OFFSET 2.625397 0.000000 11.175217
						CHANNELS 6 Xposition Yposition Zposition Zrotation Yrotation Xrotation
						JOINT LeftArm
						{
							OFFSET 0.000000 0.000000 10.813629
							CHANNELS 6 Xposition Yposition Zposition Zrotation Yrotation Xrotation
							JOINT LeftForeArm
							{
								OFFSET 0.000000 0.000000 28.724777
								CHANNELS 6 Xposition Yposition Zposition Zrotation Yrotation Xrotation
								JOINT LeftHand
								{
									OFFSET 0.644379 0.328857 25.716171
									CHANNELS 6 Xposition Yposition Zposition Zrotation Yrotation Xrotation
									JOINT LeftHandThumb1
									{
										OFFSET 2.867310 -2.944275 3.959564
										CHANNELS 6 Xposition Yposition Zposition Zrotation Yrotation Xrotation
										JOINT LeftHandThumb2
										{
											OFFSET 0.000000 0.000000 3.350403
											CHANNELS 6 Xposition Yposition Zposition Zrotation Yrotation Xrotation
											JOINT LeftHandThumb3
											{
												OFFSET 0.000000 0.000000 3.756516
												CHANNELS 6 Xposition Yposition Zposition Zrotation Yrotation Xrotation
												JOINT LeftHandThumb4
												{
													OFFSET 0.000000 0.000000 3.100006
													CHANNELS 6 Xposition Yposition Zposition Zrotation Yrotation Xrotation
													End Site
													{
														OFFSET 0.000000 0.000000 0.100006
													}
												}
											}
										}
									}
									JOINT LeftHandIndex1
									{
										OFFSET 0.086761 -2.345276 10.030899
										CHANNELS 6 Xposition Yposition Zposition Zrotation Yrotation Xrotation
										JOINT LeftHandIndex2
										{
											OFFSET 0.000000 0.000000 4.061096
											CHANNELS 6 Xposition Yposition Zposition Zrotation Yrotation Xrotation
											JOINT LeftHandIndex3
											{
												OFFSET 0.000000 0.000000 3.248871
												CHANNELS 6 Xposition Yposition Zposition Zrotation Yrotation Xrotation
												JOINT LeftHandIndex4
												{
													OFFSET 0.000000 0.000000 2.639709
													CHANNELS 6 Xposition Yposition Zposition Zrotation Yrotation Xrotation
													End Site
													{
														OFFSET 0.000000 0.000000 0.100006
													}
												}
											}
										}
									}
									JOINT LeftHandMiddle1
									{
										OFFSET -0.104095 -0.006775 9.502945
										CHANNELS 6 Xposition Yposition Zposition Zrotation Yrotation Xrotation
										JOINT LeftHandMiddle2
										{
											OFFSET 0.000000 0.000000 4.568726
											CHANNELS 6 Xposition Yposition Zposition Zrotation Yrotation Xrotation
											JOINT LeftHandMiddle3
											{
												OFFSET 0.000000 0.000000 3.654984
												CHANNELS 6 Xposition Yposition Zposition Zrotation Yrotation Xrotation
												JOINT LeftHandMiddle4
												{
													OFFSET 0.000000 0.000000 2.741241
													CHANNELS 6 Xposition Yposition Zposition Zrotation Yrotation Xrotation
													End Site
													{
														OFFSET 0.000000 0.000000 0.100006
													}
												}
											}
										}
									}
									JOINT LeftHandRing1
									{
										OFFSET -0.086761 2.267456 8.921707
										CHANNELS 6 Xposition Yposition Zposition Zrotation Yrotation Xrotation
										JOINT LeftHandRing2
										{
											OFFSET 0.000000 0.000000 4.061096
											CHANNELS 6 Xposition Yposition Zposition Zrotation Yrotation Xrotation
											JOINT LeftHandRing3
											{
												OFFSET 0.000000 0.000000 3.654984
												CHANNELS 6 Xposition Yposition Zposition Zrotation Yrotation Xrotation
												JOINT LeftHandRing4
												{
													OFFSET 0.000000 0.000000 2.741241
													CHANNELS 6 Xposition Yposition Zposition Zrotation Yrotation Xrotation
													End Site
													{
														OFFSET 0.000000 0.000000 0.100006
													}
												}
											}
										}
									}
									JOINT LeftHandPinky1
									{
										OFFSET 0.173492 4.467224 7.976990
										CHANNELS 6 Xposition Yposition Zposition Zrotation Yrotation Xrotation
										JOINT LeftHandPinky2
										{
											OFFSET 0.000000 0.000000 3.350403
											CHANNELS 6 Xposition Yposition Zposition Zrotation Yrotation Xrotation
											JOINT LeftHandPinky3
											{
												OFFSET 0.000000 0.000000 2.842758
												CHANNELS 6 Xposition Yposition Zposition Zrotation Yrotation Xrotation
												JOINT LeftHandPinky4
												{
													OFFSET 0.000000 0.000000 2.639709
													CHANNELS 6 Xposition Yposition Zposition Zrotation Yrotation Xrotation
													End Site
													{
														OFFSET 0.000000 0.000000 0.100006
													}
												}
											}
										}
									}
									JOINT LeftForeArmEnd
									{
										OFFSET 0.000000 0.000000 0.000000
										CHANNELS 6 Xposition Yposition Zposition Zrotation Yrotation Xrotation
										End Site
										{
											OFFSET 0.000000 0.000000 0.100006
										}
									}
								}
								JOINT LeftArmEnd
								{
									OFFSET 0.000000 0.000000 0.000000
									CHANNELS 6 Xposition Yposition Zposition Zrotation Yrotation Xrotation
									End Site
									{
										OFFSET 0.000000 0.000000 0.100006
									}
								}
							}
						}
					}
				}
			}
		}
	}
	JOINT RightUpLeg
	{
		OFFSET -11.289948 0.000000 0.000000
		CHANNELS 6 Xposition Yposition Zposition Zrotation Yrotation Xrotation
		JOINT RightLeg
		{
			OFFSET 0.000000 0.000000 -38.200329
			CHANNELS 6 Xposition Yposition Zposition Zrotation Yrotation Xrotation
			JOINT RightFoot
			{
				OFFSET 0.000000 0.000000 -39.900856
				CHANNELS 6 Xposition Yposition Zposition Zrotation Yrotation Xrotation
				JOINT RightToeBase
				{
					OFFSET 0.000000 -15.261658 0.000001
					CHANNELS 6 Xposition Yposition Zposition Zrotation Yrotation Xrotation
					JOINT RightToeBaseEnd
					{
						OFFSET 0.000000 -7.370728 0.000001
						CHANNELS 6 Xposition Yposition Zposition Zrotation Yrotation Xrotation
						End Site
						{
							OFFSET 0.000000 0.000000 0.100000
						}
					}
				}
				JOINT RightLegEnd
				{
					OFFSET 0.000000 0.000000 0.000000
					CHANNELS 6 Xposition Yposition Zposition Zrotation Yrotation Xrotation
					End Site
					{
						OFFSET 0.000000 0.000000 0.100000
					}
				}
			}
			JOINT RightUpLegEnd
			{
				OFFSET 0.000000 0.000000 0.000000
				CHANNELS 6 Xposition Yposition Zposition Zrotation Yrotation Xrotation
				End Site
				{
					OFFSET 0.000000 0.000000 0.099998
				}
			}
		}
	}
	JOINT LeftUpLeg
	{
		OFFSET 11.315674 0.000000 0.000000
		CHANNELS 6 Xposition Yposition Zposition Zrotation Yrotation Xrotation
		JOINT LeftLeg
		{
			OFFSET 0.000000 0.000000 -38.200329
			CHANNELS 6 Xposition Yposition Zposition Zrotation Yrotation Xrotation
			JOINT LeftFoot
			{
				OFFSET 0.000000 0.000000 -39.900856
				CHANNELS 6 Xposition Yposition Zposition Zrotation Yrotation Xrotation
				JOINT LeftToeBase
				{
					OFFSET 0.000000 -15.261658 0.000001
					CHANNELS 6 Xposition Yposition Zposition Zrotation Yrotation Xrotation
					JOINT LeftToeBaseEnd
					{
						OFFSET 0.000000 -7.539978 0.000001
						CHANNELS 6 Xposition Yposition Zposition Zrotation Yrotation Xrotation
						End Site
						{
							OFFSET 0.000000 0.000000 0.100000
						}
					}
				}
				JOINT LeftLegEnd
				{
					OFFSET 0.000000 0.000000 0.000000
					CHANNELS 6 Xposition Yposition Zposition Zrotation Yrotation Xrotation
					End Site
					{
						OFFSET 0.000000 0.000000 0.100000
					}
				}
			}
			JOINT LeftUpLegEnd
			{
				OFFSET 0.000000 0.000000 0.000000
				CHANNELS 6 Xposition Yposition Zposition Zrotation Yrotation Xrotation
				End Site
				{
					OFFSET 0.000000 0.000000 0.099998
				}
			}
		}
	}
}
MOTION
Frames: 2
Frame Time: 0.016667
23.597046 -21.457336 85.033127 -8.217210 -7.550868 -21.560831 0.000000 2.080068 8.814246 -0.617806 0.698587 10.463208 0.000004 -0.000025 8.844135 0.134603 -0.540712 -1.375106 -0.000006 0.000015 11.682259 1.272814 6.631058 18.450248 -0.000003 0.000003 11.746691 -0.515138 3.977812 5.166242 0.000019 -0.000026 17.658287 3.904276 10.508465 -4.603382 -0.000002 0.000029 5.101527 1.019506 0.004381 -10.500337 0.000013 -0.000014 5.101524 -1.913671 1.219064 -17.730654 -0.000002 0.000003 11.655087 0.000000 -0.000000 -0.000001 -2.625390 -0.000014 11.175213 14.397752 -90.417792 -0.730665 0.000011 -0.000010 10.434723 -17.607256 -72.445931 23.367595 0.000000 0.000000 29.628456 30.182732 1.006328 93.950584 0.000057 0.000008 22.857605 -25.991904 -27.856536 -26.484689 -2.867355 -2.944290 3.959564 31.586770 -17.619171 50.974494 -0.000034 -0.000015 3.350368 -13.456723 8.731241 -24.185488 -0.000065 0.000004 3.756516 -8.945551 6.680295 -16.547170 -0.000071 -0.000008 3.147326 0.000001 -0.000001 0.000002 -0.086758 -2.345257 10.030886 -11.829159 -16.185675 2.891624 0.000006 -0.000010 4.061098 0.318242 -11.567685 1.650774 -0.000000 0.000006 3.248881 -0.188994 -11.567567 1.652280 0.000004 -0.000006 2.639711 0.000000 -0.000000 -0.000002 0.104111 -0.006774 9.502953 -6.356683 -15.165650 -0.250859 0.000009 -0.000026 4.568726 0.409527 -10.735544 0.578792 -0.000016 -0.000018 3.654966 -0.083315 -10.735585 0.574042 0.000008 0.000015 2.741210 -0.000003 -0.000000 -0.000002 0.086722 2.267443 8.921726 1.818069 -15.303751 -5.368571 -0.000012 -0.000069 4.061100 -0.908313 -11.126112 -0.680973 -0.000044 -0.000081 3.654994 0.076771 -11.126220 -0.685614 -0.000038 -0.000006 2.741226 0.000000 0.000000 -0.000001 -0.173557 4.467249 7.976997 10.546125 -12.989044 -10.263853 -0.000008 -0.000040 3.350414 -1.825166 -10.436203 -2.047866 0.000004 -0.000033 2.842770 0.180169 -10.436256 -2.049101 0.000010 -0.000071 2.639715 0.000001 -0.000001 0.000002 0.000015 -0.000035 -0.000013 -0.000003 0.000000 -0.000003 0.000013 0.000004 -0.000027 -0.000001 0.000000 -0.000000 2.625390 0.000014 11.175212 -12.082541 90.896957 -2.254988 -0.000031 0.000004 10.813622 46.793322 61.573493 29.836005 0.000038 -0.000031 28.724777 -23.847554 1.608631 111.410125 0.644348 0.328811 25.716133 -36.462664 50.133326 -25.764244 2.867207 -2.944275 3.959549 -31.799858 16.060550 53.379619 -0.000027 -0.000095 3.350430 10.021814 -7.236843 -18.398976 -0.000034 -0.000015 3.756489 6.707671 -5.373966 -12.625915 -0.000027 0.000001 3.099998 -0.000001 0.000000 -0.000001 0.086723 -2.345304 10.030908 -7.612925 5.495520 1.605844 -0.000045 -0.000025 4.061104 0.500602 3.658942 -0.527149 -0.000023 0.000017 3.248881 -0.006574 3.658446 -0.528748 -0.000039 -0.000004 2.639721 0.000001 -0.000000 0.000000 -0.104170 -0.006789 9.502967 -2.717055 4.403563 -1.475899 -0.000020 -0.000007 4.568736 0.509979 3.184635 -0.173648 -0.000020 -0.000004 3.654983 0.016948 3.183293 -0.173874 -0.000047 0.000005 2.741266 -0.000000 -0.000000 0.000001 -0.086807 2.267473 8.921730 5.407042 5.761055 -6.860303 -0.000046 0.000005 4.061122 -1.075471 3.694462 0.224148 -0.000028 -0.000004 3.654974 -0.054354 3.694601 0.229986 -0.000035 -0.000001 2.741272 -0.000001 0.000000 -0.000001 0.173471 4.467270 7.976971 13.721782 8.152932 -11.742581 -0.000039 -0.000057 3.350427 -1.977106 3.717859 0.723679 -0.000042 -0.000056 2.842766 0.020780 3.717848 0.723540 -0.000032 0.000002 2.639705 -0.000001 -0.000000 -0.000001 -0.000025 -0.000007 -0.000015 0.000000 0.000000 0.000000 -0.000001 -0.000014 0.000018 0.000002 0.000000 -0.000000 -11.289944 0.000074 0.000008 -6.958058 25.943131 9.142031 -0.000015 0.000074 -38.200317 -0.929781 0.548124 30.497963 0.000009 0.000006 -39.900848 -26.008163 -13.498495 12.650262 0.000011 -15.261619 -0.000002 0.796532 3.556689 -12.598012 0.000002 -7.370697 0.000001 -0.000005 -0.000001 0.000000 -0.000013 0.000015 0.000001 -0.000002 0.000000 -0.000002 -0.000002 0.000066 0.000001 -0.000001 0.000001 0.000001 11.315701 -0.000088 -0.000015 -3.798948 17.657946 15.569857 0.000029 -0.000005 -38.200329 0.218343 -0.085460 19.655281 -0.000015 -0.000001 -39.900852 12.376901 -10.485449 7.030341 -0.000025 -15.261639 0.000019 -1.188946 1.327496 -13.835734 -0.000021 -7.539914 -0.000000 -0.000001 -0.000000 -0.000001 -0.000033 -0.000008 -0.000001 0.000001 0.000001 0.000001 0.000003 0.000011 0.000000 -0.000002 0.000000 0.000001 
23.595886 -21.451294 85.035782 -8.227595 -7.549769 -21.546276 -0.000000 2.080101 8.814232 -0.616979 0.702165 10.457412 -0.000006 0.000034 8.844144 0.135360 -0.517749 -1.352798 -0.000007 0.000000 11.682251 1.263582 6.625251 18.406682 0.000039 -0.000013 11.746695 -0.519110 3.973513 5.159555 0.000006 0.000019 17.658249 3.885754 10.506928 -4.585931 -0.000007 0.000007 5.101498 1.007690 0.009094 -10.474396 -0.000010 0.000015 5.101516 -1.912394 1.218574 -17.722201 -0.000007 0.000004 11.655070 -0.000000 0.000001 -0.000003 -2.625385 0.000017 11.175226 14.377767 -90.412280 -0.715202 -0.000027 0.000023 10.434704 -17.673362 -72.385471 23.435528 0.000013 -0.000011 29.628422 30.194146 1.002407 94.000820 0.000011 0.000061 22.857590 -25.868327 -27.971430 -26.447864 -2.867332 -2.944321 3.959549 31.586780 -17.619176 50.974487 -0.000053 -0.000008 3.350399 -13.456722 8.731240 -24.185478 -0.000069 0.000008 3.756516 -8.945547 6.680290 -16.547170 -0.000049 0.000019 3.147337 -0.000002 0.000002 -0.000000 -0.086746 -2.345258 10.030918 -11.830302 -16.213047 2.718197 -0.000010 0.000006 4.061105 0.318601 -11.569447 1.649797 -0.000007 -0.000025 3.248875 -0.189481 -11.569567 1.651549 -0.000004 0.000017 2.639726 -0.000002 -0.000002 -0.000004 0.104099 -0.006777 9.502961 -6.352467 -15.164111 -0.427392 0.000002 0.000023 4.568734 0.410612 -10.728640 0.578241 -0.000010 0.000023 3.654981 -0.082967 -10.728580 0.573988 0.000012 0.000016 2.741231 -0.000003 -0.000000 0.000001 0.086769 2.267480 8.921738 1.821183 -15.258528 -5.541899 0.000003 -0.000068 4.061123 -0.907456 -11.103763 -0.683679 0.000008 -0.000061 3.654988 0.077352 -11.103839 -0.686447 -0.000026 0.000010 2.741227 -0.000002 0.000001 -0.000001 -0.173523 4.467190 7.977028 10.545255 -12.902737 -10.412854 -0.000006 -0.000043 3.350435 -1.824655 -10.400653 -2.042713 -0.000006 -0.000062 2.842768 0.180997 -10.400962 -2.043731 -0.000007 -0.000086 2.639687 0.000003 -0.000001 0.000000 -0.000003 -0.000016 0.000032 0.000003 -0.000002 -0.000003 -0.000034 0.000003 -0.000013 -0.000001 0.000001 0.000000 2.625390 -0.000012 11.175230 -12.166924 90.867662 -2.336491 -0.000023 -0.000019 10.813633 46.858762 61.578615 29.875992 0.000000 0.000015 28.724697 -23.819277 1.609062 111.405091 0.644318 0.328853 25.716164 -36.503225 50.130966 -25.690975 2.867252 -2.944321 3.959503 -31.799865 16.060546 53.379581 -0.000004 -0.000076 3.350441 10.021818 -7.236842 -18.398967 -0.000044 -0.000031 3.756510 6.707666 -5.373980 -12.625898 -0.000023 0.000001 3.100020 0.000001 0.000001 -0.000001 0.086723 -2.345291 10.030903 -7.599875 5.557675 1.464319 0.000012 -0.000021 4.061099 0.500237 3.717273 -0.527111 -0.000041 0.000024 3.248882 -0.006549 3.717201 -0.529670 -0.000044 0.000003 2.639713 -0.000000 0.000000 -0.000000 -0.104118 -0.006749 9.502959 -2.701961 4.482857 -1.599216 -0.000025 -0.000016 4.568742 0.509821 3.244705 -0.172860 -0.000038 -0.000008 3.655004 0.016807 3.245240 -0.172645 -0.000043 0.000011 2.741251 -0.000002 -0.000000 0.000000 -0.086830 2.267462 8.921715 5.427933 5.887066 -6.953639 -0.000044 -0.000008 4.061098 -1.076223 3.777926 0.222658 -0.000031 -0.000005 3.655004 -0.054831 3.778024 0.229482 -0.000028 0.000007 2.741244 0.000000 -0.000000 -0.000001 0.173443 4.467270 7.976997 13.750509 8.332253 -11.809932 -0.000018 -0.000074 3.350427 -1.977283 3.829430 0.745375 0.000006 -0.000079 2.842780 0.020635 3.829732 0.745238 -0.000033 0.000010 2.639703 -0.000001 0.000000 0.000001 -0.000025 0.000051 -0.000019 0.000001 0.000002 -0.000000 -0.000032 -0.000003 0.000023 0.000000 -0.000002 -0.000000 -11.289921 0.000055 -0.000023 -6.951273 25.930241 9.133719 0.000003 0.000044 -38.200264 -0.932136 0.549421 30.489722 0.000051 0.000046 -39.900841 -26.015234 -13.492070 12.663063 0.000006 -15.261571 0.000006 0.797174 3.556045 -12.608982 0.000002 -7.370710 0.000001 -0.000003 -0.000002 -0.000000 -0.000003 -0.000039 -0.000000 -0.000004 -0.000002 -0.000001 -0.000004 0.000066 -0.000003 -0.000001 -0.000000 0.000000 11.315674 -0.000088 -0.000015 -3.799054 17.653128 15.565142 0.000015 0.000024 -38.200310 0.218063 -0.085532 19.641613 -0.000026 0.000029 -39.900860 12.381157 -10.484996 7.038826 -0.000018 -15.261700 0.000003 -1.186512 1.324885 -13.845725 -0.000075 -7.539977 0.000002 -0.000000 -0.000000 0.000000 -0.000031 -0.000001 0.000000 0.000000 0.000000 0.000002 0.000011 -0.000002 -0.000003 0.000000 0.000000 0.000000 
